<svg version="1.1" id="Layer_1" xmlns="http://www.w3.org/2000/svg" xmlns:xlink="http://www.w3.org/1999/xlink" x="0px" y="0px"
	 width="100%" viewBox="0 0 800 800" enable-background="new 0 0 800 800" xml:space="preserve">
<path fill="#FFFFFF" opacity="1.000000" stroke="none" 
	d="
M443.000000,801.000000 
	C295.333344,801.000000 148.166672,801.000000 1.000000,801.000000 
	C1.000000,534.333313 1.000000,267.666656 1.000000,1.000000 
	C267.666656,1.000000 534.333313,1.000000 801.000000,1.000000 
	C801.000000,267.666656 801.000000,534.333313 801.000000,801.000000 
	C681.833313,801.000000 562.666687,801.000000 443.000000,801.000000 
M711.143188,286.304962 
	C708.211548,277.486298 705.605042,268.543427 702.292297,259.870331 
	C687.627441,221.476562 665.315430,187.838455 638.124146,157.234741 
	C589.557678,102.573502 529.315674,68.506477 457.571564,54.783134 
	C419.561920,47.512581 381.495087,47.911915 343.521240,55.117241 
	C303.275787,62.753593 265.606171,77.265228 231.162994,99.438217 
	C188.092575,127.165047 153.444427,163.361435 126.177834,206.667023 
	C96.822456,253.290070 81.428230,304.307404 79.245674,359.204803 
	C78.653603,374.096985 79.718132,389.124146 80.991982,404.006348 
	C83.313568,431.129120 89.890854,457.319092 100.484131,482.430145 
	C126.025284,542.974670 167.937485,589.899048 221.263977,627.287659 
	C222.572388,628.205017 224.020203,628.923462 226.129272,630.160767 
	C226.129272,627.818970 226.130173,626.229370 226.129166,624.639771 
	C226.104965,586.313477 226.067596,547.987122 226.098465,509.660828 
	C226.099854,507.933624 226.117584,505.613556 227.144501,504.573700 
	C235.492920,496.119781 244.084015,487.905487 252.979721,479.250000 
	C252.979721,540.406616 252.979721,601.273010 252.979721,662.199463 
	C351.704865,662.199463 449.967163,662.199463 548.926025,662.199463 
	C548.926025,600.984558 548.926025,540.016479 548.926025,478.717712 
	C557.048218,486.649506 564.579285,494.144318 572.286926,501.452850 
	C574.896973,503.927734 575.916687,506.548828 575.905579,510.197693 
	C575.789551,548.357056 575.853821,586.516968 575.882935,624.676758 
	C575.884277,626.389648 576.027222,628.102356 576.127747,630.337402 
	C578.153381,629.071228 579.654846,628.345642 580.907715,627.317200 
	C596.833984,614.243408 613.723633,602.153137 628.443909,587.834473 
	C680.086731,537.600281 713.633423,477.899963 721.337036,405.058624 
	C725.572083,365.014984 722.499329,325.748596 711.143188,286.304962 
M385.498718,758.133728 
	C423.919312,758.297729 462.341644,758.283813 500.491241,752.858582 
	C506.670990,751.979675 512.681458,749.836548 518.715332,748.088318 
	C519.593323,747.833923 520.734253,746.502014 520.715027,745.693298 
	C520.695862,744.882935 519.518555,743.741882 518.599182,743.380066 
	C516.135376,742.410522 513.585266,741.398804 510.985962,741.075806 
	C488.949188,738.337952 466.942963,735.163940 444.827881,733.309937 
	C428.280884,731.922668 411.554718,731.451355 394.964752,732.074341 
	C367.601105,733.101868 340.263092,735.088135 312.957520,737.222839 
	C304.423157,737.890076 295.991852,740.178589 287.595490,742.086365 
	C285.582520,742.543701 283.897583,744.444763 282.061798,745.681824 
	C283.890076,746.840454 285.572876,748.504333 287.569275,749.079041 
	C306.029449,754.394104 325.101624,755.598328 344.116364,756.828735 
	C357.548584,757.697876 371.035980,757.714661 385.498718,758.133728 
z"/>
<path fill="#031C30" opacity="1.000000" stroke="none" 
	d="
M711.254272,286.694214 
	C722.499329,325.748596 725.572083,365.014984 721.337036,405.058624 
	C713.633423,477.899963 680.086731,537.600281 628.443909,587.834473 
	C613.723633,602.153137 596.833984,614.243408 580.907715,627.317200 
	C579.654846,628.345642 578.153381,629.071228 576.127747,630.337402 
	C576.027222,628.102356 575.884277,626.389648 575.882935,624.676758 
	C575.853821,586.516968 575.789551,548.357056 575.905579,510.197693 
	C575.916687,506.548828 574.896973,503.927734 572.286926,501.452850 
	C564.579285,494.144318 557.048218,486.649506 548.926025,478.717712 
	C548.926025,540.016479 548.926025,600.984558 548.926025,662.199463 
	C449.967163,662.199463 351.704865,662.199463 252.979721,662.199463 
	C252.979721,601.273010 252.979721,540.406616 252.979721,479.250000 
	C244.084015,487.905487 235.492920,496.119781 227.144501,504.573700 
	C226.117584,505.613556 226.099854,507.933624 226.098465,509.660828 
	C226.067596,547.987122 226.104965,586.313477 226.129166,624.639771 
	C226.130173,626.229370 226.129272,627.818970 226.129272,630.160767 
	C224.020203,628.923462 222.572388,628.205017 221.263977,627.287659 
	C167.937485,589.899048 126.025284,542.974670 100.484131,482.430145 
	C89.890854,457.319092 83.313568,431.129120 80.991982,404.006348 
	C79.718132,389.124146 78.653603,374.096985 79.245674,359.204803 
	C81.428230,304.307404 96.822456,253.290070 126.177834,206.667023 
	C153.444427,163.361435 188.092575,127.165047 231.162994,99.438217 
	C265.606171,77.265228 303.275787,62.753593 343.521240,55.117241 
	C381.495087,47.911915 419.561920,47.512581 457.571564,54.783134 
	C529.315674,68.506477 589.557678,102.573502 638.124146,157.234741 
	C665.315430,187.838455 687.627441,221.476562 702.292297,259.870331 
	C705.605042,268.543427 708.211548,277.486298 711.254272,286.694214 
M279.240387,315.226227 
	C279.506500,315.166260 279.772644,315.106293 280.536926,314.964874 
	C280.717865,314.693237 280.898773,314.421600 281.709167,313.901764 
	C294.199829,301.222107 306.722961,288.574188 319.173737,275.855499 
	C338.832764,255.773438 358.443237,235.643875 378.822754,215.921310 
	C379.800323,217.190933 380.532593,219.135284 381.803711,219.597412 
	C384.991821,220.756516 388.432037,221.210480 391.755737,222.011292 
	C395.473297,222.906982 399.173889,223.873215 402.763428,224.778870 
	C401.286072,228.105759 400.168457,230.622513 398.884552,233.680679 
	C398.306854,234.139313 397.729187,234.597961 396.472473,234.983505 
	C392.927582,233.940308 394.264587,236.609344 394.029419,238.029449 
	C394.029419,238.029449 394.124695,238.083633 393.346252,238.050888 
	C392.584747,239.088303 391.823273,240.125702 390.958496,241.624634 
	C390.777832,241.924942 390.512329,242.070267 389.371979,242.042267 
	C388.608795,243.100281 387.845612,244.158279 386.874023,245.815506 
	C385.977844,246.900513 385.081665,247.985504 383.451996,248.976074 
	C381.558594,249.295593 379.250702,249.092575 377.932922,250.137817 
	C377.186554,250.729813 378.064758,253.370071 377.941620,255.712601 
	C314.647491,319.652130 251.353348,383.591644 187.380142,448.217163 
	C206.775452,448.217163 225.080902,448.014709 243.376770,448.343842 
	C248.682602,448.439331 252.326660,446.740204 255.943649,443.021271 
	C299.849030,397.878723 343.883362,352.861542 387.882904,307.810516 
	C392.243286,303.345917 396.595795,298.873657 400.967072,294.389465 
	C403.087494,296.631226 404.552338,298.224304 406.063995,299.771637 
	C453.448334,348.273834 500.816498,396.791962 548.314453,445.182678 
	C549.922180,446.820709 552.832703,447.960938 555.154602,447.993134 
	C573.147156,448.242706 591.144226,448.166443 609.139954,448.175690 
	C610.532349,448.176392 611.924805,448.059662 613.317200,447.997528 
	C613.715332,447.424286 614.113464,446.851044 614.511597,446.277771 
	C606.047241,438.316650 597.371094,430.567200 589.162048,422.350952 
	C571.280579,404.453705 553.637085,386.318726 535.953308,367.439697 
	C536.206482,365.490845 536.783997,363.519806 536.652344,361.597351 
	C536.248901,355.705597 535.466614,349.840088 535.045715,343.949066 
	C534.814636,340.714294 536.631775,338.755402 539.880737,339.082001 
	C542.880371,339.383514 545.814575,340.335022 548.958191,341.707520 
	C557.553162,350.965424 566.148132,360.223297 574.743103,369.481171 
	C575.763245,366.307098 575.763855,363.859100 575.763123,361.411102 
	C575.750854,321.750702 575.810974,282.090088 575.698792,242.429962 
	C575.630981,218.441849 576.046204,194.419037 574.914673,170.474655 
	C572.944580,128.785828 541.987183,99.940697 500.275635,99.910362 
	C433.119507,99.861511 365.963074,99.839455 298.807465,100.033279 
	C292.395844,100.051773 285.800690,100.985649 279.611389,102.671684 
	C247.600906,111.391708 226.246582,140.901337 226.193451,176.190918 
	C226.098114,239.514191 226.114990,302.837646 226.099350,366.161041 
	C226.099091,367.198730 226.281067,368.236481 226.407898,369.594391 
	C234.251358,361.837097 241.857468,354.612915 249.053574,347.001068 
	C251.007172,344.934601 251.723038,341.698059 253.580215,338.450653 
	C253.387207,335.633392 253.194199,332.816162 252.778595,329.089783 
	C252.849869,324.394714 252.921143,319.699677 253.326538,314.820984 
	C253.215469,314.545868 253.104401,314.270721 252.771820,313.081635 
	C252.836014,297.388031 252.900208,281.694427 253.730438,265.984558 
	C257.501953,264.702698 260.615845,262.635620 258.440186,258.194824 
	C256.226715,253.676819 258.152100,250.718109 260.216614,246.828995 
	C261.809845,243.827713 262.349640,238.490295 260.692810,235.888840 
	C256.481903,229.277237 255.890869,228.917938 260.592377,222.837997 
	C261.376740,221.823639 262.066742,220.566345 262.299866,219.327179 
	C263.029083,215.450684 265.826233,214.451752 269.124695,214.033783 
	C270.563019,213.851517 272.014709,213.774597 273.406738,213.654480 
	C273.406738,210.041489 273.406738,206.806763 273.406738,203.572021 
	C272.342285,204.285034 272.154053,205.037018 271.990814,205.794388 
	C270.991608,210.429626 268.307709,212.465988 263.952942,211.975830 
	C259.606598,211.486618 258.826416,208.765671 258.920654,204.919846 
	C259.021454,200.805679 259.291718,196.412994 258.035706,192.623199 
	C256.616760,188.341751 257.402924,185.655670 260.711731,183.092529 
	C261.685913,182.337860 262.202667,181.014862 263.126617,180.167801 
	C264.376434,179.021957 265.755951,177.402771 267.194946,177.274109 
	C268.329712,177.172653 269.609894,179.054962 270.877472,179.985382 
	C272.301971,181.030991 273.722931,182.751190 275.252289,182.876846 
	C286.144897,183.771652 297.061798,184.392670 307.978302,184.959122 
	C310.604340,185.095367 312.140472,185.902603 311.077515,188.902390 
	C301.043427,188.978912 291.009369,189.055435 280.494019,189.030273 
	C280.494019,189.030273 280.057770,189.257538 279.388336,189.657684 
	C279.453979,192.116150 279.519623,194.574615 279.365662,197.941650 
	C279.438690,207.948578 279.511719,217.955505 279.327240,228.781693 
	C279.412354,230.198975 279.497437,231.616257 279.361206,233.941757 
	C279.437225,254.948715 279.513245,275.955658 279.330292,297.866791 
	C279.427765,302.918884 279.525238,307.971008 279.393311,313.591095 
	C279.405151,313.997955 279.416962,314.404785 279.240387,315.226227 
M630.081055,234.564896 
	C630.073120,226.449677 630.065125,218.334473 630.972107,210.131836 
	C634.539490,210.131836 638.106873,210.131836 641.865417,210.131836 
	C641.865417,206.176147 642.072937,203.009354 641.744751,199.899078 
	C641.640076,198.908051 640.123535,197.287872 639.234253,197.275223 
	C626.992615,197.101044 614.747742,197.157654 602.499023,197.157654 
	C602.499023,215.287766 602.499023,232.958466 602.499023,250.824905 
	C609.314209,250.824905 615.781067,250.824905 622.247986,250.824905 
	C628.661560,250.824905 635.075134,250.824905 641.474976,250.824905 
	C641.474976,245.370667 641.474976,240.641113 641.474976,235.407074 
	C637.528442,235.407074 633.892151,235.407074 630.081055,234.564896 
M613.343933,333.171051 
	C613.889893,334.144623 614.435791,335.118225 615.607788,337.208313 
	C609.580444,335.086243 606.517517,335.806824 606.778076,341.790924 
	C606.874390,344.002625 605.947693,346.258881 605.487549,348.494812 
	C605.085205,348.192749 604.682922,347.890656 604.280640,347.588593 
	C602.538452,349.505859 598.945190,352.339478 599.364624,353.186707 
	C601.536133,357.573425 598.194275,360.993927 598.287109,364.812500 
	C598.361572,367.878265 598.790222,371.073059 599.875122,373.898224 
	C600.230591,374.824036 603.161560,374.692749 604.869202,375.198669 
	C605.620850,375.421387 606.208313,376.169769 606.956848,376.436676 
	C610.418640,377.671143 613.878235,378.931702 617.402893,379.963348 
	C620.048340,380.737671 623.153564,380.569763 625.406311,381.910004 
	C628.797302,383.927460 631.350647,383.818817 634.299805,381.360107 
	C635.266357,380.554230 637.165039,380.077698 638.255920,380.481476 
	C639.007507,380.759705 639.221130,382.789581 639.460815,384.076538 
	C639.757324,385.668304 639.832092,387.301361 639.093323,389.036072 
	C625.605103,389.365295 627.614319,386.828156 625.983643,401.891632 
	C625.930054,402.386353 626.038879,402.906281 625.940063,403.387360 
	C624.581726,410.003937 627.591248,414.862274 632.010254,419.357117 
	C643.798523,431.347565 655.455261,443.467163 667.194397,455.506134 
	C668.264954,456.604095 669.551453,457.491547 671.176819,458.841492 
	C680.348450,436.105804 684.184570,413.303986 684.078186,390.744507 
	C680.941772,389.049622 678.711121,387.844208 676.551208,385.749329 
	C676.495422,356.096222 676.454529,326.443054 676.370117,296.790009 
	C676.354919,291.469116 676.160095,286.148773 675.995239,280.097839 
	C673.468201,276.236511 670.133728,276.365631 664.215210,280.735321 
	C663.145081,280.658936 662.075012,280.582581 660.999268,279.754700 
	C661.329224,277.021149 660.196106,274.992462 657.407898,275.241425 
	C654.569336,275.494873 651.381653,276.221161 651.131470,280.689697 
	C648.747986,280.772827 646.364502,280.855957 643.987854,280.134094 
	C644.576904,278.328644 645.299866,276.553467 645.716736,274.709076 
	C646.122498,272.914246 646.280457,271.051605 646.365906,269.210327 
	C646.377319,268.964600 645.323792,268.669464 644.763367,268.397156 
	C644.174438,269.952728 643.316528,271.463593 643.049072,273.072601 
	C642.351624,277.268341 641.224792,280.771637 636.016968,281.123871 
	C634.766357,281.208527 633.583374,282.531067 632.401855,283.332306 
	C631.279785,284.093262 630.200439,284.917114 629.102295,285.713257 
	C628.611633,284.555573 628.120972,283.397888 627.740234,281.586884 
	C627.937927,280.253204 628.135620,278.919495 628.360474,277.402344 
	C619.589844,277.402344 611.521973,277.402344 603.459412,277.402344 
	C603.307922,285.029175 607.257263,288.565338 617.006531,290.531036 
	C618.269836,291.690765 619.449097,292.962280 620.813110,293.988098 
	C624.125000,296.478760 629.187500,298.202820 630.458191,301.445282 
	C631.994568,305.365906 633.525024,307.265228 637.889893,307.320740 
	C637.889893,313.271912 637.889893,318.925446 637.889893,324.578979 
	C637.347473,324.666260 636.804993,324.753571 636.262573,324.840851 
	C635.540894,323.455475 634.048462,321.956635 634.232788,320.704620 
	C634.981201,315.620422 631.963989,311.950684 630.081665,307.838135 
	C629.021118,305.521210 617.707764,304.411591 616.134766,306.516327 
	C615.883972,306.851929 616.034973,307.487854 615.264648,308.197754 
	C607.762634,309.799377 603.830566,313.464569 603.263855,319.383820 
	C602.725647,325.005463 606.360840,329.814362 613.343933,333.171051 
M456.470917,578.469727 
	C459.660614,578.253235 462.850311,578.036804 466.851227,577.536438 
	C468.553711,577.630859 470.256195,577.725342 472.477570,578.473511 
	C475.998505,578.256653 479.519470,578.039856 483.742981,577.540405 
	C484.481506,577.634827 485.220062,577.729248 486.496460,578.485840 
	C497.460358,578.630371 508.424164,578.790161 519.388550,578.871704 
	C519.905273,578.875549 520.427124,578.183350 521.468567,577.176758 
	C521.580933,576.697327 521.792053,576.217834 521.791504,575.738525 
	C521.745605,536.922852 521.725403,498.106903 521.501465,459.292145 
	C521.489929,457.281860 520.175293,454.848389 518.714844,453.341217 
	C493.334747,427.149811 468.001678,400.908905 442.298096,375.036621 
	C428.485504,361.133453 413.992706,347.906036 399.680145,334.252808 
	C361.158722,373.558960 321.542297,413.941162 282.053436,454.447723 
	C280.676666,455.859955 279.971039,458.509277 279.962585,460.586090 
	C279.809906,498.068848 279.812866,535.552246 279.782715,573.035461 
	C279.781677,574.329956 279.782593,575.624512 279.782593,577.386169 
	C281.834656,577.386169 283.450806,577.384216 285.066986,577.386536 
	C323.383179,577.442566 361.699402,577.495422 400.015564,577.567993 
	C401.668213,577.571106 403.320557,577.757080 405.258636,578.358093 
	C405.847870,578.190918 406.437134,578.023743 407.926544,577.584473 
	C415.272430,577.670959 422.618317,577.757446 430.498169,578.495178 
	C434.677429,578.272888 438.856720,578.050659 443.919769,577.542725 
	C447.932739,577.635071 451.945709,577.727417 456.470917,578.469727 
M142.071579,447.571442 
	C151.007309,438.595734 160.095352,429.764313 168.801743,420.571472 
	C172.158081,417.027588 176.121750,413.012360 177.172409,408.586121 
	C178.609482,402.532043 177.531387,395.880920 177.531387,389.469269 
	C156.629807,389.469269 137.052780,389.469269 116.890137,389.469269 
	C117.743935,413.322937 121.772575,436.109680 130.339966,459.178436 
	C134.561523,455.007843 138.069321,451.542389 142.071579,447.571442 
M635.465454,519.931702 
	C641.670288,509.325592 647.842041,498.699860 654.103516,488.127289 
	C655.646606,485.521759 655.106262,483.660797 653.068298,481.534454 
	C650.617676,478.977570 648.111633,477.596008 644.384155,477.758026 
	C637.407959,478.061279 630.408508,477.826416 623.418762,477.821899 
	C616.481812,477.817444 609.544861,477.820984 602.443665,477.820984 
	C602.443665,504.873962 602.443665,531.292847 602.443665,557.711670 
	C602.947876,557.998108 603.452148,558.284546 603.956360,558.570984 
	C614.315613,545.883301 624.674866,533.195557 635.465454,519.931702 
M199.980270,506.500000 
	C199.980270,497.077240 199.980270,487.654449 199.980270,477.797882 
	C184.276077,477.797882 169.317535,477.638763 154.365738,477.886353 
	C149.308838,477.970062 146.155075,484.158295 148.319061,488.713654 
	C160.519958,514.397400 177.760880,536.439697 197.471680,556.690613 
	C197.953552,557.185608 198.750900,557.373596 199.980774,558.000061 
	C199.980774,540.730957 199.980774,524.115479 199.980270,506.500000 
M170.781387,247.747406 
	C179.415298,255.322723 184.047958,255.243637 191.958298,246.801208 
	C202.210236,235.859695 205.202469,221.906937 207.725952,209.384598 
	C199.111572,205.821411 191.254944,202.510498 183.334045,199.361237 
	C182.145264,198.888611 180.313431,198.612549 179.359161,199.195374 
	C171.611694,203.927139 163.386673,207.094009 154.201996,207.318863 
	C157.623154,227.880371 161.503418,237.463867 170.781387,247.747406 
M134.372482,350.499878 
	C134.372482,360.344452 134.372482,370.188995 134.372482,380.657806 
	C140.981461,375.163818 140.981445,375.156586 149.309067,375.144440 
	C157.965897,375.131805 166.622742,375.134186 175.279587,375.131775 
	C181.210968,375.130096 187.142349,375.131439 193.130249,375.131439 
	C193.130249,357.792694 193.130249,341.035187 193.130249,324.233459 
	C173.501190,324.233459 154.143570,324.233459 134.372879,324.233459 
	C134.372879,332.893585 134.372879,341.196747 134.372482,350.499878 
M179.494507,313.136322 
	C184.108490,313.136322 188.722488,313.136322 193.550583,313.136322 
	C193.550583,301.922394 193.550583,291.219421 193.550583,279.961090 
	C174.797440,279.961090 156.373093,279.873840 137.954224,280.150696 
	C136.680435,280.169891 134.417068,282.864807 134.363571,284.377258 
	C134.030121,293.804077 134.195435,303.248535 134.195435,313.135864 
	C149.297485,313.135864 163.896713,313.135864 179.494507,313.136322 
M382.092224,613.895386 
	C381.727386,617.788086 380.653809,621.772766 381.144836,625.554321 
	C382.175385,633.491516 390.755920,641.190674 398.463196,641.979675 
	C407.739471,642.929321 416.202179,637.711975 419.758209,628.851013 
	C423.151917,620.394531 420.601532,611.263123 413.294250,605.707581 
	C402.891418,597.798523 390.198364,600.878601 382.092224,613.895386 
z"/>
<path fill="#9DBDD9" opacity="1.000000" stroke="none" 
	d="
M384.998718,758.122803 
	C371.035980,757.714661 357.548584,757.697876 344.116364,756.828735 
	C325.101624,755.598328 306.029449,754.394104 287.569275,749.079041 
	C285.572876,748.504333 283.890076,746.840454 282.061798,745.681824 
	C283.897583,744.444763 285.582520,742.543701 287.595490,742.086365 
	C295.991852,740.178589 304.423157,737.890076 312.957520,737.222839 
	C340.263092,735.088135 367.601105,733.101868 394.964752,732.074341 
	C411.554718,731.451355 428.280884,731.922668 444.827881,733.309937 
	C466.942963,735.163940 488.949188,738.337952 510.985962,741.075806 
	C513.585266,741.398804 516.135376,742.410522 518.599182,743.380066 
	C519.518555,743.741882 520.695862,744.882935 520.715027,745.693298 
	C520.734253,746.502014 519.593323,747.833923 518.715332,748.088318 
	C512.681458,749.836548 506.670990,751.979675 500.491241,752.858582 
	C462.341644,758.283813 423.919312,758.297729 384.998718,758.122803 
z"/>
<path fill="#FCFDFD" opacity="1.000000" stroke="none" 
	d="
M253.007019,338.998566 
	C251.723038,341.698059 251.007172,344.934601 249.053574,347.001068 
	C241.857468,354.612915 234.251358,361.837097 226.407898,369.594391 
	C226.281067,368.236481 226.099091,367.198730 226.099350,366.161041 
	C226.114990,302.837646 226.098114,239.514191 226.193451,176.190918 
	C226.246582,140.901337 247.600906,111.391708 279.611389,102.671684 
	C285.800690,100.985649 292.395844,100.051773 298.807465,100.033279 
	C365.963074,99.839455 433.119507,99.861511 500.275635,99.910362 
	C541.987183,99.940697 572.944580,128.785828 574.914673,170.474655 
	C576.046204,194.419037 575.630981,218.441849 575.698792,242.429962 
	C575.810974,282.090088 575.750854,321.750702 575.763123,361.411102 
	C575.763855,363.859100 575.763245,366.307098 574.743103,369.481171 
	C566.148132,360.223297 557.553162,350.965424 548.943481,340.890564 
	C548.937683,337.417480 548.960815,334.761322 548.953491,332.105255 
	C548.864868,300.071533 548.771790,268.037781 548.773193,235.561462 
	C548.804443,232.411209 548.742432,229.703552 548.771667,226.535583 
	C548.811584,207.383987 548.760315,188.692703 548.776855,169.758545 
	C548.562378,169.423676 548.280212,169.331680 547.537964,169.145432 
	C453.210846,169.031372 359.343658,169.009689 265.476501,168.998398 
	C261.652435,168.997940 257.828339,169.095215 253.708832,169.093262 
	C253.274628,169.359909 253.135849,169.680206 252.900330,170.460480 
	C252.799149,184.862549 252.770447,198.804718 252.796310,212.746765 
	C252.829239,230.498154 252.906326,248.249481 252.964386,266.000824 
	C252.900208,281.694427 252.836014,297.388031 252.795105,313.790833 
	C252.876404,314.668182 252.934418,314.836395 252.992432,315.004608 
	C252.921143,319.699677 252.849869,324.394714 252.791748,329.985840 
	C252.872284,333.587433 252.939651,336.292999 253.007019,338.998566 
M375.125488,133.726929 
	C375.715057,139.805679 377.916260,142.299164 383.150970,142.337097 
	C394.785156,142.421448 406.420837,142.436081 418.054871,142.343948 
	C423.879089,142.297821 427.168274,139.215927 427.249481,134.134796 
	C427.328979,129.157898 424.061768,126.285065 417.887421,126.242920 
	C406.918060,126.168022 395.947693,126.244110 384.977753,126.249779 
	C380.182434,126.252258 376.561951,127.955070 375.125488,133.726929 
M330.753418,139.525116 
	C333.968201,142.803497 338.006378,143.595352 341.414001,140.854370 
	C343.477448,139.194595 345.494843,135.313873 344.921753,133.109940 
	C344.265228,130.585068 340.999847,127.753349 338.336823,127.041359 
	C336.133087,126.452156 332.643890,128.164322 330.647736,129.911774 
	C327.877075,132.337219 328.211365,135.823349 330.753418,139.525116 
z"/>
<path fill="#FCFDFD" opacity="1.000000" stroke="none" 
	d="
M404.973022,577.857910 
	C403.320557,577.757080 401.668213,577.571106 400.015564,577.567993 
	C361.699402,577.495422 323.383179,577.442566 285.066986,577.386536 
	C283.450806,577.384216 281.834656,577.386169 279.782593,577.386169 
	C279.782593,575.624512 279.781677,574.329956 279.782715,573.035461 
	C279.812866,535.552246 279.809906,498.068848 279.962585,460.586090 
	C279.971039,458.509277 280.676666,455.859955 282.053436,454.447723 
	C321.542297,413.941162 361.158722,373.558960 399.680145,334.252808 
	C413.992706,347.906036 428.485504,361.133453 442.298096,375.036621 
	C468.001678,400.908905 493.334747,427.149811 518.714844,453.341217 
	C520.175293,454.848389 521.489929,457.281860 521.501465,459.292145 
	C521.725403,498.106903 521.745605,536.922852 521.791504,575.738525 
	C521.792053,576.217834 521.580933,576.697327 520.751831,577.394409 
	C508.676270,577.682678 497.317413,577.753174 485.958588,577.823669 
	C485.220062,577.729248 484.481506,577.634827 482.944702,577.554016 
	C478.750488,577.651672 475.354584,577.735779 471.958679,577.819824 
	C470.256195,577.725342 468.553711,577.630859 466.002106,577.551392 
	C462.088226,577.650818 459.023438,577.735291 455.958679,577.819824 
	C451.945709,577.727417 447.932739,577.635071 443.026184,577.560242 
	C438.076477,577.666504 434.020355,577.755249 429.964203,577.843872 
	C422.618317,577.757446 415.272430,577.670959 407.140991,577.601990 
	C405.894623,577.698975 405.433807,577.778442 404.973022,577.857910 
M469.681335,547.838867 
	C469.681335,547.838867 469.744415,547.794128 469.910614,546.987610 
	C469.910614,507.412628 469.910614,467.837616 469.910614,428.013580 
	C423.703033,428.013580 378.044464,428.013580 332.319122,428.013580 
	C332.200745,428.756317 332.059723,429.228790 332.059418,429.701355 
	C332.034271,468.487518 332.012787,507.273712 332.046753,546.059814 
	C332.047607,547.030518 332.669281,548.000671 333.779449,549.209717 
	C334.856049,549.142822 335.932617,549.075928 337.788544,549.228760 
	C338.857452,549.152100 339.926392,549.075439 341.887085,549.195129 
	C344.925323,549.127319 347.963531,549.059509 351.735657,549.207764 
	C352.490112,549.135437 353.244537,549.063110 354.919373,549.183533 
	C385.154053,549.199768 415.388702,549.232849 445.623383,549.220642 
	C453.417236,549.217468 461.211060,549.071838 469.479645,549.124573 
	C469.569214,548.689270 469.658783,548.253906 469.681335,547.838867 
z"/>
<path fill="#FDFEFE" opacity="1.000000" stroke="none" 
	d="
M397.151489,235.056610 
	C397.729187,234.597961 398.306854,234.139313 399.332275,233.353760 
	C401.017090,233.690247 402.509705,234.100677 403.453766,235.054199 
	C424.350403,256.160187 445.128540,277.383606 466.052612,298.462189 
	C482.178680,314.707367 498.473572,330.784943 514.811035,347.194580 
	C516.293640,348.732544 517.658630,350.012909 519.173950,351.624695 
	C524.848389,357.397675 530.372314,362.839294 535.896301,368.280884 
	C553.637085,386.318726 571.280579,404.453705 589.162048,422.350952 
	C597.371094,430.567200 606.047241,438.316650 614.511597,446.277771 
	C614.113464,446.851044 613.715332,447.424286 613.317200,447.997528 
	C611.924805,448.059662 610.532349,448.176392 609.139954,448.175690 
	C591.144226,448.166443 573.147156,448.242706 555.154602,447.993134 
	C552.832703,447.960938 549.922180,446.820709 548.314453,445.182678 
	C500.816498,396.791962 453.448334,348.273834 406.063995,299.771637 
	C404.552338,298.224304 403.087494,296.631226 400.967072,294.389465 
	C396.595795,298.873657 392.243286,303.345917 387.882904,307.810516 
	C343.883362,352.861542 299.849030,397.878723 255.943649,443.021271 
	C252.326660,446.740204 248.682602,448.439331 243.376770,448.343842 
	C225.080902,448.014709 206.775452,448.217163 187.380142,448.217163 
	C251.353348,383.591644 314.647491,319.652130 378.388641,255.269989 
	C380.618927,252.908417 382.402191,250.989456 384.185486,249.070496 
	C385.081665,247.985504 385.977844,246.900513 387.278870,245.397934 
	C388.509796,244.007111 389.335876,243.033859 390.161987,242.060623 
	C390.512329,242.070267 390.777832,241.924942 391.304504,241.273041 
	C392.475250,239.975510 393.299957,239.029572 394.124695,238.083633 
	C394.124695,238.083633 394.029419,238.029449 394.354187,237.965027 
	C395.503143,236.952591 396.327301,236.004593 397.151489,235.056610 
z"/>
<path fill="#021A2D" opacity="1.000000" stroke="none" 
	d="
M514.693420,346.937012 
	C498.473572,330.784943 482.178680,314.707367 466.052612,298.462189 
	C445.128540,277.383606 424.350403,256.160187 403.453766,235.054199 
	C402.509705,234.100677 401.017090,233.690247 399.415405,233.083069 
	C400.168457,230.622513 401.286072,228.105759 402.763428,224.778870 
	C399.173889,223.873215 395.473297,222.906982 391.755737,222.011292 
	C388.432037,221.210480 384.991821,220.756516 381.803711,219.597412 
	C380.532593,219.135284 379.800323,217.190933 378.613525,215.455750 
	C379.181488,214.293106 379.958710,213.596024 381.171143,212.927460 
	C387.166565,214.250046 389.103607,210.496246 390.054413,206.235306 
	C391.097626,206.416031 391.461243,206.393311 391.725555,206.544373 
	C392.151489,206.787796 392.620300,207.073227 392.883606,207.466415 
	C396.463531,212.812698 402.562073,213.016296 406.981262,211.357925 
	C410.920197,209.879791 414.479187,210.337036 418.102051,209.915619 
	C418.018707,210.005966 418.174164,209.816605 418.123840,210.215820 
	C419.141541,211.372986 420.209503,212.130920 421.470154,212.967178 
	C421.904083,213.212402 422.052704,213.439880 422.075867,214.155029 
	C421.681458,219.179520 424.048431,220.601913 428.514038,220.076691 
	C440.521942,232.466171 452.252563,244.683945 463.983215,256.901733 
	C464.396576,256.701141 464.809967,256.500580 465.223358,256.300018 
	C465.223358,253.202850 465.223358,250.105682 465.605896,247.016479 
	C468.220062,247.196152 472.129089,248.077896 472.406586,247.422379 
	C474.006744,243.642166 477.647461,243.584869 480.453705,242.465195 
	C484.473083,240.861511 488.838837,240.125870 493.042480,239.486816 
	C493.028656,241.613052 493.031433,243.272064 493.029144,244.931076 
	C493.013824,256.046478 492.971588,267.161926 492.997589,278.277222 
	C493.005127,281.486450 490.832062,284.968445 493.918335,288.149353 
	C492.921661,289.937378 492.085114,291.393188 491.248596,292.848999 
	C492.723602,293.005005 494.201752,293.136414 495.672760,293.323883 
	C497.142242,293.511230 498.604523,293.754669 500.382385,294.095947 
	C501.742767,295.376404 502.790741,296.534424 503.493591,297.833710 
	C503.648621,299.768188 504.148743,301.561371 504.482239,302.757050 
	C503.640839,308.131134 502.502472,313.303894 502.133789,318.530975 
	C501.906769,321.750122 503.995911,323.421295 507.124725,325.337891 
	C512.894165,328.872009 516.143555,324.068268 520.443298,323.037354 
	C521.181091,322.860474 521.779236,320.637665 521.812866,319.343597 
	C521.858826,317.577393 521.301331,315.795532 521.266357,313.697571 
	C521.530273,288.646545 521.530273,263.918335 521.530273,238.646576 
	C512.931702,238.646576 504.968231,238.646576 497.004456,238.247131 
	C498.280823,233.799591 499.619537,229.769470 500.801422,225.693878 
	C501.231110,224.212082 502.049072,221.971451 501.383606,221.191437 
	C498.173065,217.428253 499.873077,213.795746 501.460480,210.005859 
	C505.947540,209.986938 509.974213,210.024628 514.060425,210.406616 
	C514.703369,211.300293 515.198242,212.146881 515.884521,212.351639 
	C520.894592,213.846268 522.134583,216.265854 519.239258,221.136261 
	C516.829346,225.190125 519.868591,233.814941 523.370056,237.372086 
	C525.161011,239.191498 526.608154,242.043594 526.852905,244.560989 
	C527.595947,252.204071 527.617188,259.914978 528.064697,267.591003 
	C528.158936,269.207031 528.379150,271.277802 529.390625,272.292389 
	C532.543701,275.455383 532.000549,279.253113 532.000244,283.030884 
	C532.000000,286.028809 531.944763,289.028076 532.017395,292.024261 
	C532.100708,295.464386 533.770935,297.454773 536.328247,297.672516 
	C538.433167,293.864014 540.252075,290.679626 541.952026,287.432922 
	C542.468506,286.446594 542.884277,285.303955 542.959656,284.206329 
	C543.676025,273.778137 544.445984,263.349396 544.841125,252.907196 
	C544.913147,251.003845 543.482971,248.972290 542.502258,247.129761 
	C541.990967,246.169174 540.357788,245.567551 540.242676,244.673523 
	C539.577942,239.513077 536.202087,237.811371 532.001160,237.738678 
	C532.001160,230.258057 531.930786,223.147537 532.065674,216.040924 
	C532.090149,214.750336 532.766541,212.498856 533.463806,212.364777 
	C536.303589,211.818726 539.281311,212.044586 542.182434,211.740417 
	C543.781311,211.572800 545.329224,210.917755 546.900085,210.482452 
	C546.052795,209.140076 545.205444,207.797699 544.358154,206.455307 
	C543.987854,206.637192 543.617615,206.819092 543.247375,207.000977 
	C543.247375,199.891785 543.247375,192.782593 543.247375,185.644669 
	C544.560486,185.521744 545.630005,185.421616 546.773926,185.314545 
	C546.773926,183.264069 546.773926,181.483246 546.773926,179.806122 
	C545.171875,179.473145 543.640747,179.489456 542.465332,178.850983 
	C538.063660,176.460144 536.730652,177.076324 534.936035,181.671387 
	C533.998596,184.071625 532.094238,186.094223 530.626587,188.287384 
	C530.044983,188.180862 529.463318,188.074326 528.881714,187.967804 
	C527.927734,185.399979 526.973816,182.832169 525.999695,180.210068 
	C525.478271,180.273010 524.889221,180.169037 524.544373,180.411865 
	C518.633789,184.573837 517.078613,184.199234 513.447876,178.381287 
	C512.730591,177.231964 510.689941,176.145935 509.451263,176.328812 
	C508.481750,176.471939 507.612091,178.543884 507.064575,179.906143 
	C506.606110,181.046875 506.677826,182.400726 506.467102,184.028305 
	C504.149323,183.864578 502.184387,183.526337 500.241791,183.625687 
	C494.221252,183.933578 487.657410,183.017410 482.320099,185.135635 
	C473.801544,188.516418 465.887756,183.787125 457.767090,185.290085 
	C457.425079,185.353378 456.964783,184.777313 456.523407,184.474274 
	C456.523407,183.969788 456.625061,183.470642 456.505951,183.031342 
	C455.973389,181.067017 455.340576,177.431320 454.811218,177.443024 
	C451.606750,177.513870 451.318726,179.777374 451.521667,182.685349 
	C451.591949,183.692154 449.217316,185.588501 447.749298,185.836914 
	C444.504822,186.385956 440.997559,185.607437 437.836334,186.365952 
	C433.890320,187.312714 431.703644,185.941696 430.376221,182.593018 
	C428.802246,178.622391 426.030457,179.268631 423.680145,181.155792 
	C419.365967,184.619904 414.807739,186.367035 409.174988,186.085037 
	C402.118134,185.731766 395.022675,185.825272 387.961090,186.127472 
	C386.271362,186.199799 384.649628,187.860718 382.533478,188.864349 
	C375.048218,188.880112 368.026062,188.822540 360.944031,188.409668 
	C357.581879,186.623428 354.279663,185.192505 350.977417,183.761566 
	C349.477966,182.126648 347.815430,180.083939 345.805450,179.649719 
	C343.211975,179.089462 340.209656,179.340988 339.524475,183.306335 
	C339.394348,184.059494 337.158722,184.781555 335.831177,184.923080 
	C333.369141,185.185547 330.813293,184.714645 328.384979,185.102783 
	C326.194427,185.452942 323.022858,184.957932 322.542175,188.820953 
	C318.727844,188.846069 315.365479,188.794281 312.003143,188.742477 
	C312.140472,185.902603 310.604340,185.095367 307.978302,184.959122 
	C297.061798,184.392670 286.144897,183.771652 275.252289,182.876846 
	C273.722931,182.751190 272.301971,181.030991 270.877472,179.985382 
	C269.609894,179.054962 268.329712,177.172653 267.194946,177.274109 
	C265.755951,177.402771 264.376434,179.021957 263.126617,180.167801 
	C262.202667,181.014862 261.685913,182.337860 260.711731,183.092529 
	C257.402924,185.655670 256.616760,188.341751 258.035706,192.623199 
	C259.291718,196.412994 259.021454,200.805679 258.920654,204.919846 
	C258.826416,208.765671 259.606598,211.486618 263.952942,211.975830 
	C268.307709,212.465988 270.991608,210.429626 271.990814,205.794388 
	C272.154053,205.037018 272.342285,204.285034 273.406738,203.572021 
	C273.406738,206.806763 273.406738,210.041489 273.406738,213.654480 
	C272.014709,213.774597 270.563019,213.851517 269.124695,214.033783 
	C265.826233,214.451752 263.029083,215.450684 262.299866,219.327179 
	C262.066742,220.566345 261.376740,221.823639 260.592377,222.837997 
	C255.890869,228.917938 256.481903,229.277237 260.692810,235.888840 
	C262.349640,238.490295 261.809845,243.827713 260.216614,246.828995 
	C258.152100,250.718109 256.226715,253.676819 258.440186,258.194824 
	C260.615845,262.635620 257.501953,264.702698 253.347412,265.992676 
	C252.906326,248.249481 252.829239,230.498154 252.796310,212.746765 
	C252.770447,198.804718 252.799149,184.862549 253.111526,170.375336 
	C253.685898,169.663666 253.880829,169.435898 254.004257,169.146942 
	C257.828339,169.095215 261.652435,168.997940 265.476501,168.998398 
	C359.343658,169.009689 453.210846,169.031372 547.591797,169.324371 
	C548.241272,169.829971 548.442444,169.964600 548.709045,170.001419 
	C548.760315,188.692703 548.811584,207.383987 548.398682,226.525238 
	C546.056946,227.222672 542.637268,227.220673 542.550354,227.757843 
	C541.953674,231.445953 540.777039,235.475433 543.754089,238.552734 
	C545.644897,237.574417 547.162415,236.789215 548.679932,236.004028 
	C548.771790,268.037781 548.864868,300.071533 548.953491,332.105255 
	C548.960815,334.761322 548.937683,337.417480 548.853149,340.536926 
	C545.814575,340.335022 542.880371,339.383514 539.880737,339.082001 
	C536.631775,338.755402 534.814636,340.714294 535.045715,343.949066 
	C535.466614,349.840088 536.248901,355.705597 536.652344,361.597351 
	C536.783997,363.519806 536.206482,365.490845 535.924805,367.860291 
	C530.372314,362.839294 524.848389,357.397675 519.646362,351.559082 
	C521.748413,351.405823 523.577576,352.019379 525.294922,351.791260 
	C527.077637,351.554504 529.368042,350.943878 530.280090,349.669312 
	C531.015137,348.642029 530.594482,345.335114 529.705383,344.854370 
	C526.213562,342.966217 522.409058,341.315399 518.542786,340.707214 
	C517.609436,340.560394 515.994751,344.744507 514.693420,346.937012 
M486.014893,278.753967 
	C485.919586,277.644623 485.824249,276.535278 485.728912,275.425903 
	C485.179413,275.559784 484.629913,275.693634 484.080414,275.827484 
	C484.505890,276.828583 484.931366,277.829681 486.014893,278.753967 
M256.797668,211.391129 
	C256.793518,211.785629 256.789337,212.180145 256.785156,212.574646 
	C256.948883,212.576157 257.254883,212.588654 257.255737,212.577606 
	C257.286011,212.185043 257.287689,211.790268 256.797668,211.391129 
z"/>
<path fill="#9ABBD7" opacity="1.000000" stroke="none" 
	d="
M361.003937,188.764954 
	C368.026062,188.822540 375.048218,188.880112 382.996277,188.942230 
	C389.913330,189.029877 395.904510,189.112991 401.767181,189.449326 
	C401.072021,190.444794 400.505341,191.187042 399.704163,192.164749 
	C393.225067,199.233124 386.980469,206.066025 380.735901,212.898926 
	C379.958710,213.596024 379.181488,214.293106 378.239319,215.262314 
	C358.443237,235.643875 338.832764,255.773438 319.173737,275.855499 
	C306.722961,288.574188 294.199829,301.222107 281.287994,313.804688 
	C280.452118,313.479431 280.037415,313.251282 279.622711,313.023102 
	C279.525238,307.971008 279.427765,302.918884 279.796417,297.258301 
	C280.507202,295.899261 280.964050,295.149170 280.965607,294.398163 
	C281.005859,275.045654 281.021881,255.692917 280.939178,236.340668 
	C280.934479,235.236374 280.054932,234.135834 279.582550,233.033539 
	C279.497437,231.616257 279.412354,230.198975 279.793427,228.216553 
	C280.427124,217.728073 280.604309,207.804825 280.712219,197.880814 
	C280.715240,197.602356 279.977570,197.315842 279.585266,197.033081 
	C279.519623,194.574615 279.453979,192.116150 279.827271,189.580383 
	C280.266205,189.503067 280.697876,189.512314 280.697876,189.512314 
	C280.697876,189.512314 280.975281,189.131973 280.975281,189.131973 
	C291.009369,189.055435 301.043427,188.978912 311.540344,188.822433 
	C315.365479,188.794281 318.727844,188.846069 323.005066,188.901489 
	C336.281311,188.858398 348.642609,188.811676 361.003937,188.764954 
M314.618195,207.923019 
	C305.157928,208.598618 297.719879,214.399857 295.114441,223.134705 
	C292.568542,231.670151 295.751251,241.701111 302.617584,246.782425 
	C310.010437,252.253357 320.465881,252.521347 327.810791,247.428177 
	C335.837311,241.862381 339.471100,231.540634 336.597534,222.469574 
	C333.891205,213.926407 325.598694,208.206955 314.618195,207.923019 
z"/>
<path fill="#467697" opacity="1.000000" stroke="none" 
	d="
M141.824341,447.824188 
	C138.069321,451.542389 134.561523,455.007843 130.339966,459.178436 
	C121.772575,436.109680 117.743935,413.322937 116.890137,389.469269 
	C137.052780,389.469269 156.629807,389.469269 177.531387,389.469269 
	C177.531387,395.880920 178.609482,402.532043 177.172409,408.586121 
	C176.121750,413.012360 172.158081,417.027588 168.801743,420.571472 
	C160.095352,429.764313 151.007309,438.595734 141.824341,447.824188 
z"/>
<path fill="#487798" opacity="1.000000" stroke="none" 
	d="
M676.480469,386.638794 
	C678.711121,387.844208 680.941772,389.049622 684.078186,390.744507 
	C684.184570,413.303986 680.348450,436.105804 671.176819,458.841492 
	C669.551453,457.491547 668.264954,456.604095 667.194397,455.506134 
	C655.455261,443.467163 643.798523,431.347565 632.010254,419.357117 
	C627.591248,414.862274 624.581726,410.003937 625.940063,403.387360 
	C626.038879,402.906281 625.930054,402.386353 625.983643,401.891632 
	C627.614319,386.828156 625.605103,389.365295 639.940002,389.032288 
	C641.905518,388.309631 643.024353,387.590698 644.561646,386.897827 
	C647.201538,386.869965 649.422974,386.816040 651.807373,387.175507 
	C657.580444,387.803131 663.190186,388.027740 668.802063,388.171875 
	C668.943420,388.175507 669.107544,387.291901 669.665527,386.876526 
	C672.206787,386.833588 674.343628,386.736206 676.480469,386.638794 
z"/>
<path fill="#FAFBFC" opacity="1.000000" stroke="none" 
	d="
M676.515869,386.194061 
	C674.343628,386.736206 672.206787,386.833588 669.622986,386.420776 
	C669.176025,381.628113 669.176025,377.345642 669.176025,373.016724 
	C663.189392,373.016724 657.662598,373.016724 651.644409,373.016724 
	C651.644409,377.840393 651.644409,382.301239 651.644409,386.762085 
	C649.422974,386.816040 647.201538,386.869965 644.483398,386.442596 
	C643.960083,382.812195 643.915955,379.663147 643.909424,376.514008 
	C643.851379,348.665741 643.800049,320.817474 643.848755,292.610657 
	C643.901611,291.512817 643.852356,290.773468 643.877014,289.585175 
	C643.960938,286.403839 643.971008,283.671448 643.981018,280.939087 
	C646.364502,280.855957 648.747986,280.772827 651.998535,280.688721 
	C655.578674,280.627197 658.291809,280.566681 661.004883,280.506195 
	C662.075012,280.582581 663.145081,280.658936 665.054626,280.735229 
	C669.278809,280.766144 672.663513,280.797150 676.048279,280.828156 
	C676.160095,286.148773 676.354919,291.469116 676.370117,296.790009 
	C676.454529,326.443054 676.495422,356.096222 676.515869,386.194061 
M654.779175,308.696075 
	C659.385742,308.696075 663.992310,308.696075 668.757629,308.696075 
	C668.757629,303.275391 668.757629,298.277313 668.757629,293.395203 
	C662.998962,293.395203 657.600891,293.395203 651.837891,293.395203 
	C651.837891,297.807281 651.720581,301.933411 651.928833,306.043030 
	C651.975037,306.955261 653.169800,307.809296 654.779175,308.696075 
M659.507507,332.758698 
	C657.069336,332.758698 654.631165,332.758698 652.062500,332.758698 
	C652.062500,338.069458 652.062500,342.933563 652.062500,347.801086 
	C657.862488,347.801086 663.358643,347.801086 668.799377,347.801086 
	C668.799377,342.575500 668.799377,337.702820 668.799377,332.758087 
	C665.792297,332.758087 663.145264,332.758087 659.507507,332.758698 
z"/>
<path fill="#457598" opacity="1.000000" stroke="none" 
	d="
M635.249756,520.219788 
	C624.674866,533.195557 614.315613,545.883301 603.956360,558.570984 
	C603.452148,558.284546 602.947876,557.998108 602.443665,557.711670 
	C602.443665,531.292847 602.443665,504.873962 602.443665,477.820984 
	C609.544861,477.820984 616.481812,477.817444 623.418762,477.821899 
	C630.408508,477.826416 637.407959,478.061279 644.384155,477.758026 
	C648.111633,477.596008 650.617676,478.977570 653.068298,481.534454 
	C655.106262,483.660797 655.646606,485.521759 654.103516,488.127289 
	C647.842041,498.699860 641.670288,509.325592 635.249756,520.219788 
z"/>
<path fill="#487798" opacity="1.000000" stroke="none" 
	d="
M199.980530,507.000000 
	C199.980774,524.115479 199.980774,540.730957 199.980774,558.000061 
	C198.750900,557.373596 197.953552,557.185608 197.471680,556.690613 
	C177.760880,536.439697 160.519958,514.397400 148.319061,488.713654 
	C146.155075,484.158295 149.308838,477.970062 154.365738,477.886353 
	C169.317535,477.638763 184.276077,477.797882 199.980270,477.797882 
	C199.980270,487.654449 199.980270,497.077240 199.980530,507.000000 
z"/>
<path fill="#021A2D" opacity="1.000000" stroke="none" 
	d="
M643.746704,292.969208 
	C643.800049,320.817474 643.851379,348.665741 643.909424,376.514008 
	C643.915955,379.663147 643.960083,382.812195 644.064941,386.416565 
	C643.024353,387.590698 641.905518,388.309631 640.394653,388.972565 
	C639.832092,387.301361 639.757324,385.668304 639.460815,384.076538 
	C639.221130,382.789581 639.007507,380.759705 638.255920,380.481476 
	C637.165039,380.077698 635.266357,380.554230 634.299805,381.360107 
	C631.350647,383.818817 628.797302,383.927460 625.406311,381.910004 
	C623.153564,380.569763 620.048340,380.737671 617.402893,379.963348 
	C613.878235,378.931702 610.418640,377.671143 606.956848,376.436676 
	C606.208313,376.169769 605.620850,375.421387 604.869202,375.198669 
	C603.161560,374.692749 600.230591,374.824036 599.875122,373.898224 
	C598.790222,371.073059 598.361572,367.878265 598.287109,364.812500 
	C598.194275,360.993927 601.536133,357.573425 599.364624,353.186707 
	C598.945190,352.339478 602.538452,349.505859 604.280640,347.588593 
	C604.682922,347.890656 605.085205,348.192749 605.487549,348.494812 
	C605.947693,346.258881 606.874390,344.002625 606.778076,341.790924 
	C606.517517,335.806824 609.580444,335.086243 615.607788,337.208313 
	C614.435791,335.118225 613.889893,334.144623 613.659546,332.805267 
	C622.481628,333.222778 629.432861,326.755615 627.944214,318.091003 
	C626.820740,311.551971 621.600769,309.446777 616.000244,307.984955 
	C616.034973,307.487854 615.883972,306.851929 616.134766,306.516327 
	C617.707764,304.411591 629.021118,305.521210 630.081665,307.838135 
	C631.963989,311.950684 634.981201,315.620422 634.232788,320.704620 
	C634.048462,321.956635 635.540894,323.455475 636.262573,324.840851 
	C636.804993,324.753571 637.347473,324.666260 637.889893,324.578979 
	C637.889893,318.925446 637.889893,313.271912 637.889893,307.320740 
	C633.525024,307.265228 631.994568,305.365906 630.458191,301.445282 
	C629.187500,298.202820 624.125000,296.478760 620.813110,293.988098 
	C619.449097,292.962280 618.269836,291.690765 617.299683,289.939301 
	C620.938660,286.978455 624.284485,284.609344 627.630310,282.240234 
	C628.120972,283.397888 628.611633,284.555573 629.102295,285.713257 
	C630.200439,284.917114 631.279785,284.093262 632.401855,283.332306 
	C633.583374,282.531067 634.766357,281.208527 636.016968,281.123871 
	C641.224792,280.771637 642.351624,277.268341 643.049072,273.072601 
	C643.316528,271.463593 644.174438,269.952728 644.763428,268.397186 
	C645.323792,268.669464 646.377319,268.964600 646.365906,269.210327 
	C646.280457,271.051605 646.122498,272.914246 645.716736,274.709076 
	C645.299866,276.553467 644.576904,278.328644 643.984436,280.536591 
	C643.971008,283.671448 643.960938,286.403839 643.665833,289.776184 
	C643.502808,291.267212 643.624756,292.118195 643.746704,292.969208 
M624.311340,373.894836 
	C624.058472,374.647339 623.805603,375.399811 623.552734,376.152313 
	C623.898254,376.240143 624.243774,376.328003 624.589294,376.415833 
	C624.715271,375.392670 624.841248,374.369476 624.623596,372.726959 
	C628.423096,368.436279 630.049438,363.652649 627.248962,358.267639 
	C624.292908,352.583557 619.094360,351.133301 613.011963,350.728912 
	C612.347839,350.242706 611.683716,349.756500 611.019592,349.270294 
	C610.676941,350.401947 610.334229,351.533600 609.406433,353.064667 
	C602.895142,358.279816 601.532227,363.845154 605.316223,369.767395 
	C609.243713,375.914398 615.796570,377.345917 623.067322,373.686157 
	C623.600281,373.417908 624.275757,373.432678 624.311340,373.894836 
M618.807495,341.190491 
	C617.559265,342.838715 616.310974,344.486908 615.062683,346.135101 
	C616.819885,346.987274 618.529968,348.333649 620.351868,348.507233 
	C621.454163,348.612305 622.729736,346.899384 623.927429,346.003265 
	C622.478271,344.355133 621.029114,342.707031 618.807495,341.190491 
z"/>
<path fill="#FCFDFD" opacity="1.000000" stroke="none" 
	d="
M170.527145,247.495697 
	C161.503418,237.463867 157.623154,227.880371 154.201996,207.318863 
	C163.386673,207.094009 171.611694,203.927139 179.359161,199.195374 
	C180.313431,198.612549 182.145264,198.888611 183.334045,199.361237 
	C191.254944,202.510498 199.111572,205.821411 207.725952,209.384598 
	C205.202469,221.906937 202.210236,235.859695 191.958298,246.801208 
	C184.047958,255.243637 179.415298,255.322723 170.527145,247.495697 
z"/>
<path fill="#F8FBFB" opacity="1.000000" stroke="none" 
	d="
M134.372681,349.999878 
	C134.372879,341.196747 134.372879,332.893585 134.372879,324.233459 
	C154.143570,324.233459 173.501190,324.233459 193.130249,324.233459 
	C193.130249,341.035187 193.130249,357.792694 193.130249,375.131439 
	C187.142349,375.131439 181.210968,375.130096 175.279587,375.131775 
	C166.622742,375.134186 157.965897,375.131805 149.309067,375.144440 
	C140.981445,375.156586 140.981461,375.163818 134.372482,380.657806 
	C134.372482,370.188995 134.372482,360.344452 134.372681,349.999878 
M181.291901,332.027191 
	C168.371048,332.027191 155.450211,332.027191 142.463348,332.027191 
	C142.463348,343.837646 142.463348,355.050323 142.463348,366.547363 
	C156.705368,366.547363 170.591599,366.547363 184.989685,366.547363 
	C184.989685,355.704163 185.051483,345.099609 184.871063,334.499146 
	C184.856796,333.661285 183.160294,332.852081 181.291901,332.027191 
z"/>
<path fill="#F5F8F9" opacity="1.000000" stroke="none" 
	d="
M178.995224,313.136108 
	C163.896713,313.135864 149.297485,313.135864 134.195435,313.135864 
	C134.195435,303.248535 134.030121,293.804077 134.363571,284.377258 
	C134.417068,282.864807 136.680435,280.169891 137.954224,280.150696 
	C156.373093,279.873840 174.797440,279.961090 193.550583,279.961090 
	C193.550583,291.219421 193.550583,301.922394 193.550583,313.136322 
	C188.722488,313.136322 184.108490,313.136322 178.995224,313.136108 
M169.190643,287.616394 
	C168.704926,293.382538 168.219193,299.148651 167.721832,305.052856 
	C174.288589,305.052856 179.872452,305.052856 185.378937,305.052856 
	C185.378937,299.145416 185.378937,293.466492 185.378937,287.421051 
	C179.985870,287.421051 175.031952,287.421051 169.190643,287.616394 
M153.454117,287.638550 
	C149.702072,287.638550 145.950043,287.638550 142.233459,287.638550 
	C142.233459,293.896942 142.233459,299.328979 142.233459,304.906677 
	C147.853134,304.906677 153.239120,304.906677 158.661484,304.906677 
	C158.661484,299.048065 158.661484,293.464813 158.661484,287.635132 
	C157.073517,287.635132 155.755539,287.635132 153.454117,287.638550 
z"/>
<path fill="#F6F8F9" opacity="1.000000" stroke="none" 
	d="
M630.255920,235.407074 
	C633.892151,235.407074 637.528442,235.407074 641.474976,235.407074 
	C641.474976,240.641113 641.474976,245.370667 641.474976,250.824905 
	C635.075134,250.824905 628.661560,250.824905 622.247986,250.824905 
	C615.781067,250.824905 609.314209,250.824905 602.499023,250.824905 
	C602.499023,232.958466 602.499023,215.287766 602.499023,197.157654 
	C614.747742,197.157654 626.992615,197.101044 639.234253,197.275223 
	C640.123535,197.287872 641.640076,198.908051 641.744751,199.899078 
	C642.072937,203.009354 641.865417,206.176147 641.865417,210.131836 
	C638.106873,210.131836 634.539490,210.131836 630.054321,210.082626 
	C623.237305,210.033417 617.338013,210.033417 611.540649,210.033417 
	C611.540649,219.009323 611.540649,227.188049 611.540649,235.523926 
	C613.259094,235.621307 614.563782,235.777084 615.865417,235.754349 
	C620.662781,235.670593 625.459167,235.527725 630.255920,235.407074 
z"/>
<path fill="#FBFCFD" opacity="1.000000" stroke="none" 
	d="
M382.251526,613.548584 
	C390.198364,600.878601 402.891418,597.798523 413.294250,605.707581 
	C420.601532,611.263123 423.151917,620.394531 419.758209,628.851013 
	C416.202179,637.711975 407.739471,642.929321 398.463196,641.979675 
	C390.755920,641.190674 382.175385,633.491516 381.144836,625.554321 
	C380.653809,621.772766 381.727386,617.788086 382.251526,613.548584 
z"/>
<path fill="#5582A1" opacity="1.000000" stroke="none" 
	d="
M630.168457,234.985992 
	C625.459167,235.527725 620.662781,235.670593 615.865417,235.754349 
	C614.563782,235.777084 613.259094,235.621307 611.540649,235.523926 
	C611.540649,227.188049 611.540649,219.009323 611.540649,210.033417 
	C617.338013,210.033417 623.237305,210.033417 629.596863,210.126343 
	C630.065125,218.334473 630.073120,226.449677 630.168457,234.985992 
z"/>
<path fill="#F8FBFB" opacity="1.000000" stroke="none" 
	d="
M615.632446,308.091370 
	C621.600769,309.446777 626.820740,311.551971 627.944214,318.091003 
	C629.432861,326.755615 622.481628,333.222778 613.570068,332.460541 
	C606.360840,329.814362 602.725647,325.005463 603.263855,319.383820 
	C603.830566,313.464569 607.762634,309.799377 615.632446,308.091370 
z"/>
<path fill="#F0F3F4" opacity="1.000000" stroke="none" 
	d="
M627.685303,281.913574 
	C624.284485,284.609344 620.938660,286.978455 617.294067,289.533386 
	C607.257263,288.565338 603.307922,285.029175 603.459412,277.402344 
	C611.521973,277.402344 619.589844,277.402344 628.360474,277.402344 
	C628.135620,278.919495 627.937927,280.253204 627.685303,281.913574 
z"/>
<path fill="#A7C8DF" opacity="1.000000" stroke="none" 
	d="
M279.471863,233.487640 
	C280.054932,234.135834 280.934479,235.236374 280.939178,236.340668 
	C281.021881,255.692917 281.005859,275.045654 280.965607,294.398163 
	C280.964050,295.149170 280.507202,295.899261 279.925903,296.806213 
	C279.513245,275.955658 279.437225,254.948715 279.471863,233.487640 
z"/>
<path fill="#A7C8DF" opacity="1.000000" stroke="none" 
	d="
M279.475464,197.487366 
	C279.977570,197.315842 280.715240,197.602356 280.712219,197.880814 
	C280.604309,207.804825 280.427124,217.728073 279.922180,227.806931 
	C279.511719,217.955505 279.438690,207.948578 279.475464,197.487366 
z"/>
<path fill="#021A2D" opacity="1.000000" stroke="none" 
	d="
M661.002075,280.130432 
	C658.291809,280.566681 655.578674,280.627197 652.428162,280.566711 
	C651.381653,276.221161 654.569336,275.494873 657.407898,275.241425 
	C660.196106,274.992462 661.329224,277.021149 661.002075,280.130432 
z"/>
<path fill="#001122" opacity="1.000000" stroke="none" 
	d="
M486.227539,578.154785 
	C497.317413,577.753174 508.676270,577.682678 520.490845,577.713745 
	C520.427124,578.183350 519.905273,578.875549 519.388550,578.871704 
	C508.424164,578.790161 497.460358,578.630371 486.227539,578.154785 
z"/>
<path fill="#021A2D" opacity="1.000000" stroke="none" 
	d="
M676.021729,280.463013 
	C672.663513,280.797150 669.278809,280.766144 665.445740,280.629425 
	C670.133728,276.365631 673.468201,276.236511 676.021729,280.463013 
z"/>
<path fill="#021A2D" opacity="1.000000" stroke="none" 
	d="
M383.818726,249.023285 
	C382.402191,250.989456 380.618927,252.908417 378.523438,254.957581 
	C378.064758,253.370071 377.186554,250.729813 377.932922,250.137817 
	C379.250702,249.092575 381.558594,249.295593 383.818726,249.023285 
z"/>
<path fill="#001122" opacity="1.000000" stroke="none" 
	d="
M430.231201,578.169556 
	C434.020355,577.755249 438.076477,577.666504 442.584290,577.703125 
	C438.856720,578.050659 434.677429,578.272888 430.231201,578.169556 
z"/>
<path fill="#001122" opacity="1.000000" stroke="none" 
	d="
M472.218140,578.146729 
	C475.354584,577.735779 478.750488,577.651672 482.593384,577.695312 
	C479.519470,578.039856 475.998505,578.256653 472.218140,578.146729 
z"/>
<path fill="#001122" opacity="1.000000" stroke="none" 
	d="
M456.214783,578.144775 
	C459.023438,577.735291 462.088226,577.650818 465.596497,577.693359 
	C462.850311,578.036804 459.660614,578.253235 456.214783,578.144775 
z"/>
<path fill="#001122" opacity="1.000000" stroke="none" 
	d="
M253.293610,338.724609 
	C252.939651,336.292999 252.872284,333.587433 252.903046,330.440369 
	C253.194199,332.816162 253.387207,335.633392 253.293610,338.724609 
z"/>
<path fill="#021A2D" opacity="1.000000" stroke="none" 
	d="
M396.811981,235.020050 
	C396.327301,236.004593 395.503143,236.952591 394.381531,238.012512 
	C394.264587,236.609344 392.927582,233.940308 396.811981,235.020050 
z"/>
<path fill="#021A2D" opacity="1.000000" stroke="none" 
	d="
M393.735474,238.067261 
	C393.299957,239.029572 392.475250,239.975510 391.356140,241.042282 
	C391.823273,240.125702 392.584747,239.088303 393.735474,238.067261 
z"/>
<path fill="#021A2D" opacity="1.000000" stroke="none" 
	d="
M389.766968,242.051453 
	C389.335876,243.033859 388.509796,244.007111 387.383087,245.098328 
	C387.845612,244.158279 388.608795,243.100281 389.766968,242.051453 
z"/>
<path fill="#A7C8DF" opacity="1.000000" stroke="none" 
	d="
M279.507996,313.307098 
	C280.037415,313.251282 280.452118,313.479431 280.973267,313.928772 
	C280.898773,314.421600 280.717865,314.693237 280.162201,314.877075 
	C279.787476,314.789276 279.428802,314.811646 279.428772,314.811646 
	C279.416962,314.404785 279.405151,313.997955 279.507996,313.307098 
z"/>
<path fill="#001122" opacity="1.000000" stroke="none" 
	d="
M405.115845,578.108032 
	C405.433807,577.778442 405.894623,577.698975 406.690918,577.738037 
	C406.437134,578.023743 405.847870,578.190918 405.115845,578.108032 
z"/>
<path fill="#A7C8DF" opacity="1.000000" stroke="none" 
	d="
M280.734650,189.081116 
	C280.975281,189.131973 280.697876,189.512314 280.697876,189.512314 
	C280.697876,189.512314 280.266205,189.503067 280.161987,189.380310 
	C280.057770,189.257538 280.494019,189.030273 280.734650,189.081116 
z"/>
<path fill="#68859B" opacity="1.000000" stroke="none" 
	d="
M279.334595,315.018921 
	C279.428802,314.811646 279.787476,314.789276 279.913116,314.917786 
	C279.772644,315.106293 279.506500,315.166260 279.334595,315.018921 
z"/>
<path fill="#001122" opacity="1.000000" stroke="none" 
	d="
M253.159485,314.912781 
	C252.934418,314.836395 252.876404,314.668182 252.905853,314.247803 
	C253.104401,314.270721 253.215469,314.545868 253.159485,314.912781 
z"/>
<path fill="#0A1C2F" opacity="1.000000" stroke="none" 
	d="
M375.155212,133.337051 
	C376.561951,127.955070 380.182434,126.252258 384.977753,126.249779 
	C395.947693,126.244110 406.918060,126.168022 417.887421,126.242920 
	C424.061768,126.285065 427.328979,129.157898 427.249481,134.134796 
	C427.168274,139.215927 423.879089,142.297821 418.054871,142.343948 
	C406.420837,142.436081 394.785156,142.421448 383.150970,142.337097 
	C377.916260,142.299164 375.715057,139.805679 375.155212,133.337051 
z"/>
<path fill="#0A1C2F" opacity="1.000000" stroke="none" 
	d="
M330.487305,139.239716 
	C328.211365,135.823349 327.877075,132.337219 330.647736,129.911774 
	C332.643890,128.164322 336.133087,126.452156 338.336823,127.041359 
	C340.999847,127.753349 344.265228,130.585068 344.921753,133.109940 
	C345.494843,135.313873 343.477448,139.194595 341.414001,140.854370 
	C338.006378,143.595352 333.968201,142.803497 330.487305,139.239716 
z"/>
<path fill="#031C30" opacity="1.000000" stroke="none" 
	d="
M548.773193,235.561462 
	C547.162415,236.789215 545.644897,237.574417 543.754089,238.552734 
	C540.777039,235.475433 541.953674,231.445953 542.550354,227.757843 
	C542.637268,227.220673 546.056946,227.222672 548.307434,226.985535 
	C548.742432,229.703552 548.804443,232.411209 548.773193,235.561462 
z"/>
<path fill="#1B2D3B" opacity="1.000000" stroke="none" 
	d="
M253.708832,169.093262 
	C253.880829,169.435898 253.685898,169.663666 253.208252,169.915375 
	C253.135849,169.680206 253.274628,169.359909 253.708832,169.093262 
z"/>
<path fill="#1B2D3B" opacity="1.000000" stroke="none" 
	d="
M548.776855,169.758545 
	C548.442444,169.964600 548.241272,169.829971 548.051758,169.418610 
	C548.280212,169.331680 548.562378,169.423676 548.776855,169.758545 
z"/>
<path fill="#031C31" opacity="1.000000" stroke="none" 
	d="
M353.998993,548.990784 
	C353.244537,549.063110 352.490112,549.135437 351.088562,548.810059 
	C347.292755,548.607849 344.144012,548.803284 340.995300,548.998779 
	C339.926392,549.075439 338.857452,549.152100 337.191772,548.854553 
	C335.397156,548.643921 334.199280,548.807495 333.001404,548.971069 
	C332.669281,548.000671 332.047607,547.030518 332.046753,546.059814 
	C332.012787,507.273712 332.034271,468.487518 332.059418,429.701355 
	C332.059723,429.228790 332.200745,428.756317 332.319122,428.013580 
	C378.044464,428.013580 423.703033,428.013580 469.910614,428.013580 
	C469.910614,467.837616 469.910614,507.412628 469.309875,547.438660 
	C432.360443,547.926514 396.011719,547.948486 359.663177,548.041931 
	C357.774292,548.046753 355.887024,548.660522 353.998993,548.990784 
M425.008759,446.964661 
	C402.959656,446.964661 380.910522,446.964661 358.974640,446.964661 
	C358.974640,470.104218 358.974640,492.567047 358.874420,515.948608 
	C358.874420,519.211304 358.874420,522.473938 358.874420,525.820190 
	C387.485840,525.820190 415.341553,525.820190 443.528320,525.820190 
	C443.528320,499.481018 443.528320,473.475922 443.528320,447.071777 
	C437.473358,447.071777 431.702118,447.071777 425.008759,446.964661 
z"/>
<path fill="#001122" opacity="1.000000" stroke="none" 
	d="
M354.459167,549.087158 
	C355.887024,548.660522 357.774292,548.046753 359.663177,548.041931 
	C396.011719,547.948486 432.360443,547.926514 469.226776,547.841919 
	C469.744415,547.794128 469.681335,547.838867 469.485474,548.094482 
	C469.194702,548.563965 469.099792,548.777832 469.004883,548.991699 
	C461.211060,549.071838 453.417236,549.217468 445.623383,549.220642 
	C415.388702,549.232849 385.154053,549.199768 354.459167,549.087158 
z"/>
<path fill="#001122" opacity="1.000000" stroke="none" 
	d="
M341.441193,549.096924 
	C344.144012,548.803284 347.292755,548.607849 350.721619,548.702026 
	C347.963531,549.059509 344.925323,549.127319 341.441193,549.096924 
z"/>
<path fill="#001122" opacity="1.000000" stroke="none" 
	d="
M333.390442,549.090393 
	C334.199280,548.807495 335.397156,548.643921 336.802124,548.744629 
	C335.932617,549.075928 334.856049,549.142822 333.390442,549.090393 
z"/>
<path fill="#031C31" opacity="1.000000" stroke="none" 
	d="
M469.242249,549.058105 
	C469.099792,548.777832 469.194702,548.563965 469.518982,548.084351 
	C469.658783,548.253906 469.569214,548.689270 469.242249,549.058105 
z"/>
<path fill="#031C30" opacity="1.000000" stroke="none" 
	d="
M514.811035,347.194580 
	C515.994751,344.744507 517.609436,340.560394 518.542786,340.707214 
	C522.409058,341.315399 526.213562,342.966217 529.705383,344.854370 
	C530.594482,345.335114 531.015137,348.642029 530.280090,349.669312 
	C529.368042,350.943878 527.077637,351.554504 525.294922,351.791260 
	C523.577576,352.019379 521.748413,351.405823 519.495972,351.227661 
	C517.658630,350.012909 516.293640,348.732544 514.811035,347.194580 
z"/>
<path fill="#48779A" opacity="1.000000" stroke="none" 
	d="
M399.938660,191.929291 
	C400.505341,191.187042 401.072021,190.444794 402.238464,189.382996 
	C442.160309,189.063461 481.482361,189.063461 521.320557,189.063461 
	C521.320557,196.179825 521.320557,202.738403 521.320557,209.679169 
	C518.885864,209.806625 516.443359,209.934479 514.000916,210.062347 
	C509.974213,210.024628 505.947540,209.986938 500.994873,209.946411 
	C488.512848,209.943588 476.956757,209.943588 465.223358,209.943588 
	C465.223358,222.805435 465.223358,234.906982 465.223358,247.008514 
	C465.223358,250.105682 465.223358,253.202850 465.223358,256.300018 
	C464.809967,256.500580 464.396576,256.701141 463.983215,256.901733 
	C452.252563,244.683945 440.521942,232.466171 428.335999,219.791290 
	C425.956696,217.465408 424.032654,215.596664 422.108643,213.727905 
	C422.052704,213.439880 421.904083,213.212402 421.312653,212.679474 
	C420.033051,211.481186 419.103607,210.648911 418.174164,209.816620 
	C418.174164,209.816605 418.018707,210.005966 418.026794,209.591248 
	C413.292694,203.972595 408.613464,198.708511 403.751099,193.619476 
	C402.863190,192.690231 401.228577,192.474442 399.938660,191.929291 
z"/>
<path fill="#031C30" opacity="1.000000" stroke="none" 
	d="
M514.060425,210.406616 
	C516.443359,209.934479 518.885864,209.806625 521.320557,209.679169 
	C521.320557,202.738403 521.320557,196.179825 521.320557,189.063461 
	C481.482361,189.063461 442.160309,189.063461 402.366943,189.129791 
	C395.904510,189.112991 389.913330,189.029877 383.459412,188.868896 
	C384.649628,187.860718 386.271362,186.199799 387.961090,186.127472 
	C395.022675,185.825272 402.118134,185.731766 409.174988,186.085037 
	C414.807739,186.367035 419.365967,184.619904 423.680145,181.155792 
	C426.030457,179.268631 428.802246,178.622391 430.376221,182.593018 
	C431.703644,185.941696 433.890320,187.312714 437.836334,186.365952 
	C440.997559,185.607437 444.504822,186.385956 447.749298,185.836914 
	C449.217316,185.588501 451.591949,183.692154 451.521667,182.685349 
	C451.318726,179.777374 451.606750,177.513870 454.811218,177.443024 
	C455.340576,177.431320 455.973389,181.067017 456.505951,183.031342 
	C456.625061,183.470642 456.523407,183.969788 456.523407,184.474274 
	C456.964783,184.777313 457.425079,185.353378 457.767090,185.290085 
	C465.887756,183.787125 473.801544,188.516418 482.320099,185.135635 
	C487.657410,183.017410 494.221252,183.933578 500.241791,183.625687 
	C502.184387,183.526337 504.149323,183.864578 506.467102,184.028305 
	C506.677826,182.400726 506.606110,181.046875 507.064575,179.906143 
	C507.612091,178.543884 508.481750,176.471939 509.451263,176.328812 
	C510.689941,176.145935 512.730591,177.231964 513.447876,178.381287 
	C517.078613,184.199234 518.633789,184.573837 524.544373,180.411865 
	C524.889221,180.169037 525.478271,180.273010 525.999695,180.210068 
	C526.973816,182.832169 527.927734,185.399979 528.881714,187.967804 
	C529.463318,188.074326 530.044983,188.180862 530.626587,188.287384 
	C532.094238,186.094223 533.998596,184.071625 534.936035,181.671387 
	C536.730652,177.076324 538.063660,176.460144 542.465332,178.850983 
	C543.640747,179.489456 545.171875,179.473145 546.773926,179.806122 
	C546.773926,181.483246 546.773926,183.264069 546.773926,185.314545 
	C545.630005,185.421616 544.560486,185.521744 543.247375,185.644669 
	C543.247375,192.782593 543.247375,199.891785 543.247375,207.000977 
	C543.617615,206.819092 543.987854,206.637192 544.358154,206.455307 
	C545.205444,207.797699 546.052795,209.140076 546.900085,210.482452 
	C545.329224,210.917755 543.781311,211.572800 542.182434,211.740417 
	C539.281311,212.044586 536.303589,211.818726 533.463806,212.364777 
	C532.766541,212.498856 532.090149,214.750336 532.065674,216.040924 
	C531.930786,223.147537 532.001160,230.258057 532.001160,237.738678 
	C536.202087,237.811371 539.577942,239.513077 540.242676,244.673523 
	C540.357788,245.567551 541.990967,246.169174 542.502258,247.129761 
	C543.482971,248.972290 544.913147,251.003845 544.841125,252.907196 
	C544.445984,263.349396 543.676025,273.778137 542.959656,284.206329 
	C542.884277,285.303955 542.468506,286.446594 541.952026,287.432922 
	C540.252075,290.679626 538.433167,293.864014 536.328247,297.672516 
	C533.770935,297.454773 532.100708,295.464386 532.017395,292.024261 
	C531.944763,289.028076 532.000000,286.028809 532.000244,283.030884 
	C532.000549,279.253113 532.543701,275.455383 529.390625,272.292389 
	C528.379150,271.277802 528.158936,269.207031 528.064697,267.591003 
	C527.617188,259.914978 527.595947,252.204071 526.852905,244.560989 
	C526.608154,242.043594 525.161011,239.191498 523.370056,237.372086 
	C519.868591,233.814941 516.829346,225.190125 519.239258,221.136261 
	C522.134583,216.265854 520.894592,213.846268 515.884521,212.351639 
	C515.198242,212.146881 514.703369,211.300293 514.060425,210.406616 
z"/>
<path fill="#F9FAFB" opacity="1.000000" stroke="none" 
	d="
M494.078430,287.817139 
	C490.832062,284.968445 493.005127,281.486450 492.997589,278.277222 
	C492.971588,267.161926 493.013824,256.046478 493.029144,244.931076 
	C493.031433,243.272064 493.028656,241.613052 493.435883,239.424973 
	C494.897247,238.812790 495.951019,238.729691 497.004761,238.646576 
	C504.968231,238.646576 512.931702,238.646576 521.530273,238.646576 
	C521.530273,263.918335 521.530273,288.646545 520.953430,313.577576 
	C514.863953,308.417755 509.351318,303.055115 503.838684,297.692444 
	C502.790741,296.534424 501.742767,295.376404 500.264679,293.782745 
	C497.915863,291.503754 495.997131,289.660461 494.078430,287.817139 
z"/>
<path fill="#031C30" opacity="1.000000" stroke="none" 
	d="
M497.004456,238.247147 
	C495.951019,238.729691 494.897247,238.812790 493.450073,238.957733 
	C488.838837,240.125870 484.473083,240.861511 480.453705,242.465195 
	C477.647461,243.584869 474.006744,243.642166 472.406586,247.422379 
	C472.129089,248.077896 468.220062,247.196152 465.605896,247.016479 
	C465.223358,234.906982 465.223358,222.805435 465.223358,209.943588 
	C476.956757,209.943588 488.512848,209.943588 500.534546,210.003021 
	C499.873077,213.795746 498.173065,217.428253 501.383606,221.191437 
	C502.049072,221.971451 501.231110,224.212082 500.801422,225.693878 
	C499.619537,229.769470 498.280823,233.799591 497.004456,238.247147 
z"/>
<path fill="#031C30" opacity="1.000000" stroke="none" 
	d="
M399.704163,192.164764 
	C401.228577,192.474442 402.863190,192.690231 403.751099,193.619476 
	C408.613464,198.708511 413.292694,203.972595 418.110138,209.500916 
	C414.479187,210.337036 410.920197,209.879791 406.981262,211.357925 
	C402.562073,213.016296 396.463531,212.812698 392.883606,207.466415 
	C392.620300,207.073227 392.151489,206.787796 391.725555,206.544373 
	C391.461243,206.393311 391.097626,206.416031 390.054413,206.235306 
	C389.103607,210.496246 387.166565,214.250046 381.171143,212.927460 
	C386.980469,206.066025 393.225067,199.233124 399.704163,192.164764 
z"/>
<path fill="#031C30" opacity="1.000000" stroke="none" 
	d="
M503.493591,297.833710 
	C509.351318,303.055115 514.863953,308.417755 520.689575,313.900391 
	C521.301331,315.795532 521.858826,317.577393 521.812866,319.343597 
	C521.779236,320.637665 521.181091,322.860474 520.443298,323.037354 
	C516.143555,324.068268 512.894165,328.872009 507.124725,325.337891 
	C503.995911,323.421295 501.906769,321.750122 502.133789,318.530975 
	C502.502472,313.303894 503.640839,308.131134 504.482239,302.757050 
	C504.148743,301.561371 503.648621,299.768188 503.493591,297.833710 
z"/>
<path fill="#031C30" opacity="1.000000" stroke="none" 
	d="
M360.944031,188.409668 
	C348.642609,188.811676 336.281311,188.858398 323.457092,188.824585 
	C323.022858,184.957932 326.194427,185.452942 328.384979,185.102783 
	C330.813293,184.714645 333.369141,185.185547 335.831177,184.923080 
	C337.158722,184.781555 339.394348,184.059494 339.524475,183.306335 
	C340.209656,179.340988 343.211975,179.089462 345.805450,179.649719 
	C347.815430,180.083939 349.477966,182.126648 350.977417,183.761566 
	C354.279663,185.192505 357.581879,186.623428 360.944031,188.409668 
z"/>
<path fill="#031C30" opacity="1.000000" stroke="none" 
	d="
M493.918335,288.149353 
	C495.997131,289.660461 497.915863,291.503754 499.952271,293.660278 
	C498.604523,293.754669 497.142242,293.511230 495.672760,293.323883 
	C494.201752,293.136414 492.723602,293.005005 491.248596,292.848999 
	C492.085114,291.393188 492.921661,289.937378 493.918335,288.149353 
z"/>
<path fill="#031C30" opacity="1.000000" stroke="none" 
	d="
M422.075867,214.155029 
	C424.032654,215.596664 425.956696,217.465408 428.058716,219.619583 
	C424.048431,220.601913 421.681458,219.179520 422.075867,214.155029 
z"/>
<path fill="#031C30" opacity="1.000000" stroke="none" 
	d="
M485.685852,278.792358 
	C484.931366,277.829681 484.505890,276.828583 484.080414,275.827484 
	C484.629913,275.693634 485.179413,275.559784 485.728912,275.425903 
	C485.824249,276.535278 485.919586,277.644623 485.685852,278.792358 
z"/>
<path fill="#031C30" opacity="1.000000" stroke="none" 
	d="
M418.123840,210.215836 
	C419.103607,210.648911 420.033051,211.481186 421.119995,212.601166 
	C420.209503,212.130920 419.141541,211.372986 418.123840,210.215836 
z"/>
<path fill="#031C30" opacity="1.000000" stroke="none" 
	d="
M257.045532,211.393463 
	C257.287689,211.790268 257.286011,212.185043 257.255737,212.577606 
	C257.254883,212.588654 256.948883,212.576157 256.785156,212.574646 
	C256.789337,212.180145 256.793518,211.785629 257.045532,211.393463 
z"/>
<path fill="#FDFEFE" opacity="1.000000" stroke="none" 
	d="
M315.061035,207.921997 
	C325.598694,208.206955 333.891205,213.926407 336.597534,222.469574 
	C339.471100,231.540634 335.837311,241.862381 327.810791,247.428177 
	C320.465881,252.521347 310.010437,252.253357 302.617584,246.782425 
	C295.751251,241.701111 292.568542,231.670151 295.114441,223.134705 
	C297.719879,214.399857 305.157928,208.598618 315.061035,207.921997 
z"/>
<path fill="#021A2D" opacity="1.000000" stroke="none" 
	d="
M651.807373,387.175507 
	C651.644409,382.301239 651.644409,377.840393 651.644409,373.016724 
	C657.662598,373.016724 663.189392,373.016724 669.176025,373.016724 
	C669.176025,377.345642 669.176025,381.628113 669.218567,386.366333 
	C669.107544,387.291901 668.943420,388.175507 668.802063,388.171875 
	C663.190186,388.027740 657.580444,387.803131 651.807373,387.175507 
z"/>
<path fill="#0A1C2F" opacity="1.000000" stroke="none" 
	d="
M654.307434,308.693085 
	C653.169800,307.809296 651.975037,306.955261 651.928833,306.043030 
	C651.720581,301.933411 651.837891,297.807281 651.837891,293.395203 
	C657.600891,293.395203 662.998962,293.395203 668.757629,293.395203 
	C668.757629,298.277313 668.757629,303.275391 668.757629,308.696075 
	C663.992310,308.696075 659.385742,308.696075 654.307434,308.693085 
z"/>
<path fill="#031427" opacity="1.000000" stroke="none" 
	d="
M660.002808,332.758392 
	C663.145264,332.758087 665.792297,332.758087 668.799377,332.758087 
	C668.799377,337.702820 668.799377,342.575500 668.799377,347.801086 
	C663.358643,347.801086 657.862488,347.801086 652.062500,347.801086 
	C652.062500,342.933563 652.062500,338.069458 652.062500,332.758698 
	C654.631165,332.758698 657.069336,332.758698 660.002808,332.758392 
z"/>
<path fill="#031C30" opacity="1.000000" stroke="none" 
	d="
M643.848755,292.610657 
	C643.624756,292.118195 643.502808,291.267212 643.591980,290.225159 
	C643.852356,290.773468 643.901611,291.512817 643.848755,292.610657 
z"/>
<path fill="#F8FBFB" opacity="1.000000" stroke="none" 
	d="
M613.132507,351.475098 
	C619.094360,351.133301 624.292908,352.583557 627.248962,358.267639 
	C630.049438,363.652649 628.423096,368.436279 624.765564,373.054108 
	C624.907532,373.381256 624.884949,373.315826 624.884949,373.315826 
	C624.275757,373.432678 623.600281,373.417908 623.067322,373.686157 
	C615.796570,377.345917 609.243713,375.914398 605.316223,369.767395 
	C601.532227,363.845154 602.895142,358.279816 609.984375,352.842072 
	C611.419067,352.238037 612.275757,351.856567 613.132507,351.475098 
z"/>
<path fill="#031C30" opacity="1.000000" stroke="none" 
	d="
M619.193726,341.124695 
	C621.029114,342.707031 622.478271,344.355133 623.927429,346.003265 
	C622.729736,346.899384 621.454163,348.612305 620.351868,348.507233 
	C618.529968,348.333649 616.819885,346.987274 615.062683,346.135101 
	C616.310974,344.486908 617.559265,342.838715 619.193726,341.124695 
z"/>
<path fill="#031C30" opacity="1.000000" stroke="none" 
	d="
M613.072266,351.101990 
	C612.275757,351.856567 611.419067,352.238037 610.276978,352.642365 
	C610.334229,351.533600 610.676941,350.401947 611.019592,349.270294 
	C611.683716,349.756500 612.347839,350.242706 613.072266,351.101990 
z"/>
<path fill="#031C30" opacity="1.000000" stroke="none" 
	d="
M624.598145,373.605347 
	C624.884949,373.315826 624.907532,373.381256 624.937378,373.363770 
	C624.841248,374.369476 624.715271,375.392670 624.589294,376.415833 
	C624.243774,376.328003 623.898254,376.240143 623.552734,376.152313 
	C623.805603,375.399811 624.058472,374.647339 624.598145,373.605347 
z"/>
<path fill="#4D7DA1" opacity="1.000000" stroke="none" 
	d="
M181.768738,332.028381 
	C183.160294,332.852081 184.856796,333.661285 184.871063,334.499146 
	C185.051483,345.099609 184.989685,355.704163 184.989685,366.547363 
	C170.591599,366.547363 156.705368,366.547363 142.463348,366.547363 
	C142.463348,355.050323 142.463348,343.837646 142.463348,332.027191 
	C155.450211,332.027191 168.371048,332.027191 181.768738,332.028381 
z"/>
<path fill="#0E2133" opacity="1.000000" stroke="none" 
	d="
M169.634338,287.518738 
	C175.031952,287.421051 179.985870,287.421051 185.378937,287.421051 
	C185.378937,293.466492 185.378937,299.145416 185.378937,305.052856 
	C179.872452,305.052856 174.288589,305.052856 167.721832,305.052856 
	C168.219193,299.148651 168.704926,293.382538 169.634338,287.518738 
z"/>
<path fill="#021A2D" opacity="1.000000" stroke="none" 
	d="
M153.945831,287.636841 
	C155.755539,287.635132 157.073517,287.635132 158.661484,287.635132 
	C158.661484,293.464813 158.661484,299.048065 158.661484,304.906677 
	C153.239120,304.906677 147.853134,304.906677 142.233459,304.906677 
	C142.233459,299.328979 142.233459,293.896942 142.233459,287.638550 
	C145.950043,287.638550 149.702072,287.638550 153.945831,287.636841 
z"/>
<path fill="#4A7797" opacity="1.000000" stroke="none" 
	d="
M425.930878,447.071777 
	C431.702118,447.071777 437.473358,447.071777 443.528320,447.071777 
	C443.528320,473.475922 443.528320,499.481018 443.528320,525.820190 
	C415.341553,525.820190 387.485840,525.820190 358.874420,525.820190 
	C358.874420,522.473938 358.874420,519.211304 359.279907,515.511963 
	C360.949432,514.049255 362.340088,513.144226 363.456543,511.976898 
	C369.516144,505.641144 375.507996,499.240662 381.631287,493.327148 
	C381.739319,498.723541 381.739319,503.655212 381.739319,509.055969 
	C394.418640,509.055969 406.205322,509.039124 417.991882,509.066833 
	C421.282532,509.074585 421.120789,506.800934 421.120453,504.579895 
	C421.119080,495.085358 421.117432,485.590851 421.116180,476.096313 
	C421.115753,472.847443 421.116119,469.598602 421.116119,466.224670 
	C416.804413,466.029724 413.329529,465.872620 409.929138,465.391663 
	C415.312714,459.069092 420.621796,453.070435 425.930878,447.071777 
z"/>
<path fill="#9BBDD8" opacity="1.000000" stroke="none" 
	d="
M381.523193,492.862457 
	C375.507996,499.240662 369.516144,505.641144 363.456543,511.976898 
	C362.340088,513.144226 360.949432,514.049255 359.330017,515.052612 
	C358.974640,492.567047 358.974640,470.104218 358.974640,446.964661 
	C380.910522,446.964661 402.959656,446.964661 425.469818,447.018219 
	C420.621796,453.070435 415.312714,459.069092 409.475891,465.468445 
	C402.307068,465.905701 395.665894,465.935547 389.024841,465.980927 
	C383.415100,466.019257 382.058838,467.377625 381.945648,472.987732 
	C381.812042,479.612793 381.664612,486.237549 381.523193,492.862457 
z"/>
<path fill="#041C31" opacity="1.000000" stroke="none" 
	d="
M381.631226,493.327148 
	C381.664612,486.237549 381.812042,479.612793 381.945648,472.987732 
	C382.058838,467.377625 383.415100,466.019257 389.024841,465.980927 
	C395.665894,465.935547 402.307068,465.905701 409.401428,465.792358 
	C413.329529,465.872620 416.804413,466.029724 421.116119,466.224670 
	C421.116119,469.598602 421.115753,472.847443 421.116180,476.096313 
	C421.117432,485.590851 421.119080,495.085358 421.120453,504.579895 
	C421.120789,506.800934 421.282532,509.074585 417.991882,509.066833 
	C406.205322,509.039124 394.418640,509.055969 381.739319,509.055969 
	C381.739319,503.655212 381.739319,498.723541 381.631226,493.327148 
z"/>
</svg>